# xmcd
#
# Track frame offsets:
#	150
#	17374
#	30042
#	45238
#	60337
#	72549
#	89187
#	104049
#	124932
#	140941
#	157068
#	172853
#	190334
#	204310
#	221165
#	237173
#	253332
#	270612
#	284751
#	302354
#
# Disc length: 4300 seconds
#
# Revision: 1
# Processed by: cddbd v1.5PL3 Copyright (c) Steve Scherf et al.
# Submitted via: audiograbber 1.83.01
#
DISCID=2a10ca14
DTITLE=Various Artist - Мега дискотека 10. (2004)
DYEAR=1900
DGENRE=
TTITLE0=Scooter. - Jigga Jigga!
TTITLE1=The Others. - Breaking Up The Pieces.
TTITLE2=3 Nacria. - Waiting 4 The Sun.
TTITLE3=Trio Maluma. - Again. (Sticky Fingers Radio Rmx)
TTITLE4=Tube and Berger feat. Chrissie Hynde. - Straight Ahead. (Radio Edit Dj En
TTITLE4=ding)
TTITLE5=Shiller. - I Feel You. (Video Edit)
TTITLE6=Twoface. - Fire In You Eyes. (Ay Ay) (Dj Encore Radio Edit)
TTITLE7=N'Evergreen. - Living On A Desert Island.
TTITLE8=Earphones. - Short Happy Life. (U.G. and B.D.S. Rmx)
TTITLE9=Hellen. - La Musica Che Batte.
TTITLE10=Master Blaster vs. Turbo B. - Ballet Dancer.
TTITLE11=Evelen "O" - Pump The Base.
TTITLE12=Natural High. - Be Where I'm At.
TTITLE13=Yan. - You Are The Girl.
TTITLE14=Billy More meets Dj Speciale. - Try Me.
TTITLE15=L2R vs. Toto Cutugno. - Autre Chanson. (Bob Sinclar Radio Edit)
TTITLE16=Sharp. - Shake Me. (Idea Rmx Edit)
TTITLE17=Special D. - Home Alone.
TTITLE18=Patrizia. - Close To Me. (Oscar Salguero Pop Mix)
TTITLE19=ATB. - We Belong.
EXTD=
EXTT0=
EXTT1=
EXTT2=
EXTT3=
EXTT4=
EXTT5=
EXTT6=
EXTT7=
EXTT8=
EXTT9=
EXTT10=
EXTT11=
EXTT12=
EXTT13=
EXTT14=
EXTT15=
EXTT16=
EXTT17=
EXTT18=
EXTT19=
PLAYORDER=
